<?xml version="1.0" encoding="utf-8"?>
<!-- Generator: Adobe Illustrator 26.1.0, SVG Export Plug-In . SVG Version: 6.00 Build 0)  -->
<svg version="1.1" id="Layer_1" xmlns="http://www.w3.org/2000/svg" xmlns:xlink="http://www.w3.org/1999/xlink" x="0px" y="0px"
	 viewBox="0 0 73 73" style="enable-background:new 0 0 73 73;" xml:space="preserve">
<g id="Pages">
	<g id="_x31_.0A-Homepage" transform="translate(-683.000000, -3463.000000)">
		<g id="Group-19" transform="translate(0.000000, 2721.000000)">
			<path id="_x201C_-copy" d="M756,815v-36.4h-15.4c-0.2-4.2-0.1-8.2,0.3-11.9s1.7-6.6,3.7-8.8c2-2.2,5.3-3.1,9.8-2.8l0,0l1.5-12.6
				c-8.8-1.7-15.9,0.1-21.1,5.3c-5.3,5.3-7.9,13.2-7.9,23.8l0,0V815H756z M712,815v-36.4h-15.4c-0.2-4.2-0.1-8.2,0.3-11.9
				s1.7-6.6,3.7-8.8c2-2.2,5.3-3.1,9.8-2.8l0,0l1.5-12.6c-8.8-1.7-15.9,0.1-21.1,5.3c-5.3,5.3-7.9,13.2-7.9,23.8l0,0V815H712z"/>
		</g>
	</g>
</g>
</svg>
