<?xml version="1.0" encoding="UTF-8"?>
<svg width="153px" height="85px" viewBox="0 0 153 85" version="1.1" xmlns="http://www.w3.org/2000/svg" xmlns:xlink="http://www.w3.org/1999/xlink">
    <title>pacificcross_logo</title>
    <g id="Symbols" stroke="none" stroke-width="1" fill="none" fill-rule="evenodd">
        <g id="logo/purple_1" fill-rule="nonzero">
            <g id="pacificcross_logo">
                <g id="Group" transform="translate(122.245955, 0.000000)" fill="#FF9124">
                    <path d="M19.6957929,0 L19.6957929,11.0032362 L17.5501618,11.0032362 C13.9190939,11.0032362 11.0032362,8.08737864 11.0032362,4.45631068 L11.0032362,0 L19.6957929,0 Z" id="Path"></path>
                    <path d="M30.6440129,11.0032362 L30.6440129,19.6957929 L26.2427184,19.6957929 C22.6116505,19.6957929 19.6957929,16.7799353 19.6957929,13.1488673 L19.6957929,11.0032362 L30.6440129,11.0032362 Z" id="Path"></path>
                    <path d="M11.0032362,17.5501618 L11.0032362,19.6957929 L0,19.6957929 L0,11.0032362 L4.4012945,11.0032362 C8.03236246,11.0032362 11.0032362,13.9190939 11.0032362,17.5501618 Z" id="Path"></path>
                    <path d="M19.6957929,26.2427184 L19.6957929,30.6440129 L11.0032362,30.6440129 L11.0032362,19.6407767 L13.1488673,19.6407767 C16.7249191,19.6957929 19.6957929,22.6116505 19.6957929,26.2427184 Z" id="Path"></path>
                </g>
                <path d="M8.85760518,30.6440129 C11.1132686,30.6440129 13.0938511,31.4142395 14.6343042,32.9546926 C16.1747573,34.4951456 17,36.3656958 17,38.6213592 C17,40.8770227 16.2297735,42.7475728 14.6343042,44.2880259 C13.038835,45.828479 11.1132686,46.5987055 8.85760518,46.5987055 L4.6763754,46.5987055 L4.6763754,54.4660194 L0,54.4660194 L0,30.6440129 L8.85760518,30.6440129 Z M8.85760518,42.2524272 C10.8381877,42.2524272 12.3236246,40.7119741 12.3236246,38.6213592 C12.3236246,36.5307443 10.8381877,34.9902913 8.85760518,34.9902913 L4.6763754,34.9902913 L4.6763754,42.197411 L8.85760518,42.197411 L8.85760518,42.2524272 Z" id="Shape" fill="#1C75BC"></path>
                <path d="M32.9546926,54.4660194 L31.5242718,50.1747573 L22.0614887,50.1747573 L20.631068,54.4660194 L15.5695793,54.4660194 L23.9320388,30.6440129 L29.7087379,30.6440129 L38.0711974,54.4660194 L32.9546926,54.4660194 Z M23.5469256,45.828479 L30.0938511,45.828479 L26.8478964,36.0906149 L23.5469256,45.828479 Z" id="Shape" fill="#1C75BC"></path>
                <path d="M41.9773463,51.3851133 C39.6116505,49.0194175 38.4563107,46.1035599 38.4563107,42.5825243 C38.4563107,39.0614887 39.6116505,36.0906149 41.9773463,33.7799353 C44.3430421,31.4142395 47.2588997,30.2038835 50.8349515,30.2038835 C55.1812298,30.2038835 59.0323625,32.4045307 61.0679612,35.815534 L56.9967638,38.1812298 C55.7864078,36.0355987 53.5307443,34.7702265 50.7799353,34.7702265 C48.4692557,34.7702265 46.5987055,35.4854369 45.1682848,36.9708738 C43.7928803,38.4563107 43.0776699,40.3268608 43.0776699,42.6375405 C43.0776699,44.8932039 43.7928803,46.763754 45.1682848,48.2491909 C46.5987055,49.7346278 48.4692557,50.4498382 50.7799353,50.4498382 C53.4757282,50.4498382 55.8414239,49.184466 56.9967638,47.0938511 L61.0679612,49.4595469 C59.0323625,52.8705502 55.1812298,55.0711974 50.8349515,55.0711974 C47.2588997,54.961165 44.2880259,53.7508091 41.9773463,51.3851133 Z" id="Path" fill="#1C75BC"></path>
                <polygon id="Path" fill="#1C75BC" points="63.9838188 30.6440129 68.6601942 30.6440129 68.6601942 54.4660194 63.9838188 54.4660194"></polygon>
                <polygon id="Path" fill="#1C75BC" points="87.3106796 35.1553398 77.7928803 35.1553398 77.7928803 40.8220065 87.0355987 40.8220065 87.0355987 45.3333333 77.7928803 45.3333333 77.7928803 54.4660194 73.1165049 54.4660194 73.1165049 30.6440129 87.3656958 30.6440129 87.3656958 35.1553398"></polygon>
                <polygon id="Path" fill="#1C75BC" points="90.7216828 30.6440129 95.3980583 30.6440129 95.3980583 54.4660194 90.7216828 54.4660194"></polygon>
                <path d="M102.275081,51.3851133 C99.9093851,49.0194175 98.7540453,46.1035599 98.7540453,42.5825243 C98.7540453,39.0614887 99.9093851,36.0906149 102.275081,33.7799353 C104.640777,31.4142395 107.556634,30.2038835 111.132686,30.2038835 C115.478964,30.2038835 119.330097,32.4045307 121.365696,35.815534 L117.294498,38.1812298 C116.084142,36.0355987 113.828479,34.7702265 111.07767,34.7702265 C108.76699,34.7702265 106.89644,35.4854369 105.466019,36.9708738 C104.090615,38.4563107 103.375405,40.3268608 103.375405,42.6375405 C103.375405,44.8932039 104.090615,46.763754 105.466019,48.2491909 C106.89644,49.7346278 108.76699,50.4498382 111.07767,50.4498382 C113.773463,50.4498382 116.139159,49.184466 117.294498,47.0938511 L121.365696,49.4595469 C119.330097,52.8705502 115.478964,55.0711974 111.132686,55.0711974 C107.556634,54.961165 104.640777,53.7508091 102.275081,51.3851133 Z" id="Path" fill="#1C75BC"></path>
                <path d="M41.9773463,81.3139159 C39.6116505,78.9482201 38.4563107,76.0323625 38.4563107,72.5113269 C38.4563107,68.9902913 39.6116505,66.0194175 41.9773463,63.7087379 C44.3430421,61.3430421 47.2588997,60.1326861 50.8349515,60.1326861 C55.1812298,60.1326861 59.0323625,62.3333333 61.0679612,65.7443366 L56.9967638,68.1100324 C55.7864078,65.9644013 53.5307443,64.6990291 50.7799353,64.6990291 C48.4692557,64.6990291 46.5987055,65.4142395 45.1682848,66.8996764 C43.7928803,68.3851133 43.0776699,70.2556634 43.0776699,72.566343 C43.0776699,74.8220065 43.7928803,76.6925566 45.1682848,78.1779935 C46.5987055,79.6634304 48.4692557,80.3786408 50.7799353,80.3786408 C53.4757282,80.3786408 55.8414239,79.0582524 56.9967638,77.0226537 L61.0679612,79.3883495 C59.0323625,82.7993528 55.1812298,85 50.8349515,85 C47.2588997,84.8899676 44.2880259,83.6796117 41.9773463,81.3139159 Z" id="Path" fill="#1C75BC"></path>
                <path d="M77.0226537,84.394822 L72.236246,76.1423948 L68.6601942,76.1423948 L68.6601942,84.394822 L63.9838188,84.394822 L63.9838188,60.5728155 L73.5016181,60.5728155 C75.7022654,60.5728155 77.5728155,61.3430421 79.1132686,62.8834951 C80.6537217,64.4239482 81.4239482,66.2944984 81.4239482,68.4401294 C81.4239482,71.4110032 79.6084142,74.1067961 76.8576052,75.3721683 L82.1391586,84.3398058 L77.0226537,84.3398058 L77.0226537,84.394822 Z M68.6601942,64.97411 L68.6601942,72.0161812 L73.5016181,72.0161812 C75.2621359,72.0161812 76.7475728,70.420712 76.7475728,68.4951456 C76.7475728,66.5695793 75.2621359,64.97411 73.5016181,64.97411 L68.6601942,64.97411 Z" id="Shape" fill="#1C75BC"></path>
                <path d="M95.8381877,84.8899676 C92.4271845,84.8899676 89.4563107,83.6796117 87.0355987,81.3139159 C84.6699029,78.8932039 83.4595469,75.9773463 83.4595469,72.5113269 C83.4595469,69.0453074 84.6699029,66.1294498 87.0355987,63.7087379 C89.4563107,61.2880259 92.3721683,60.0776699 95.8381877,60.0776699 C99.3042071,60.0776699 102.220065,61.2880259 104.640777,63.7087379 C107.061489,66.0744337 108.271845,68.9902913 108.271845,72.5113269 C108.271845,75.9773463 107.061489,78.8932039 104.640777,81.3139159 C102.220065,83.6796117 99.3042071,84.8899676 95.8381877,84.8899676 Z M95.8381877,80.2686084 C98.038835,80.2686084 99.8543689,79.5533981 101.339806,78.0679612 C102.825243,76.5825243 103.540453,74.7119741 103.540453,72.4563107 C103.540453,70.2006472 102.770227,68.3300971 101.339806,66.8446602 C99.9093851,65.3592233 98.038835,64.6440129 95.8381877,64.6440129 C93.6375405,64.6440129 91.8220065,65.4142395 90.3365696,66.8446602 C88.8511327,68.2750809 88.1359223,70.2006472 88.1359223,72.4563107 C88.1359223,74.7119741 88.9061489,76.5825243 90.3365696,78.0679612 C91.8220065,79.5533981 93.6925566,80.2686084 95.8381877,80.2686084 Z" id="Shape" fill="#1C75BC"></path>
                <path d="M109.427184,79.0032362 L113.443366,76.6375405 C114.378641,79.0582524 116.194175,80.2686084 118.944984,80.2686084 C121.585761,80.2686084 122.7411,79.223301 122.7411,77.7378641 C122.7411,76.9126214 122.355987,76.2524272 121.640777,75.8122977 C120.87055,75.3171521 119.550162,74.8220065 117.624595,74.2718447 C115.478964,73.6116505 114.213592,73.1165049 112.673139,72.0711974 C111.187702,70.9708738 110.417476,69.3754045 110.417476,67.1747573 C110.417476,65.0291262 111.187702,63.3236246 112.673139,62.0582524 C114.213592,60.7378641 116.084142,60.1326861 118.229773,60.1326861 C122.080906,60.1326861 125.106796,62.1132686 126.757282,65.4692557 L122.796117,67.7249191 C121.860841,65.6893204 120.320388,64.6440129 118.229773,64.6440129 C116.304207,64.6440129 115.093851,65.6343042 115.093851,67.0097087 C115.093851,67.7799353 115.423948,68.3851133 116.029126,68.8252427 C116.68932,69.2653722 117.84466,69.7605178 119.660194,70.3106796 L121.31068,70.8608414 C121.695793,70.9708738 122.190939,71.1909385 122.851133,71.4660194 C123.511327,71.6860841 124.006472,71.961165 124.33657,72.1812298 C125.05178,72.6213592 126.152104,73.4466019 126.592233,74.2718447 C127.087379,75.0970874 127.472492,76.2524272 127.472492,77.6278317 C127.472492,79.828479 126.647249,81.5889968 125.05178,82.8543689 C123.456311,84.1747573 121.365696,84.7799353 118.834951,84.7799353 C114.10356,84.8899676 110.802589,82.6343042 109.427184,79.0032362 Z" id="Path" fill="#1C75BC"></path>
                <path d="M128.572816,79.0032362 L132.588997,76.6375405 C133.524272,79.0582524 135.339806,80.2686084 138.090615,80.2686084 C140.731392,80.2686084 141.886731,79.223301 141.886731,77.7378641 C141.886731,76.9126214 141.501618,76.2524272 140.786408,75.8122977 C140.016181,75.3171521 138.695793,74.8220065 136.770227,74.2718447 C134.624595,73.6116505 133.359223,73.1165049 131.81877,72.0711974 C130.333333,70.9708738 129.563107,69.3754045 129.563107,67.1747573 C129.563107,65.0291262 130.333333,63.3236246 131.81877,62.0582524 C133.359223,60.7378641 135.229773,60.1326861 137.375405,60.1326861 C141.226537,60.1326861 144.252427,62.1132686 145.902913,65.4692557 L141.941748,67.7249191 C141.006472,65.6893204 139.466019,64.6440129 137.375405,64.6440129 C135.449838,64.6440129 134.239482,65.6343042 134.239482,67.0097087 C134.239482,67.7799353 134.569579,68.3851133 135.174757,68.8252427 C135.834951,69.2653722 136.990291,69.7605178 138.805825,70.3106796 L140.456311,70.8608414 C140.841424,70.9708738 141.33657,71.1909385 141.996764,71.4660194 C142.656958,71.6860841 143.152104,71.961165 143.482201,72.1812298 C144.197411,72.6213592 145.297735,73.4466019 145.737864,74.2718447 C146.23301,75.0970874 146.618123,76.2524272 146.618123,77.6278317 C146.618123,79.828479 145.79288,81.5889968 144.197411,82.8543689 C142.601942,84.1747573 140.511327,84.7799353 137.980583,84.7799353 C133.194175,84.8899676 129.893204,82.6343042 128.572816,79.0032362 Z" id="Path" fill="#1C75BC"></path>
            </g>
        </g>
    </g>
</svg>