<?xml version="1.0" encoding="utf-8"?>
<!-- Generator: Adobe Illustrator 26.1.0, SVG Export Plug-In . SVG Version: 6.00 Build 0)  -->
<svg version="1.1" id="Layer_1" xmlns="http://www.w3.org/2000/svg" xmlns:xlink="http://www.w3.org/1999/xlink" x="0px" y="0px"
	 viewBox="0 0 15 15" style="enable-background:new 0 0 15 15;" xml:space="preserve">
<style type="text/css">
	.st0{fill-rule:evenodd;clip-rule:evenodd;}
</style>
<g id="Symbols">
	<g id="Navigation-_x2F_-Main-Nav" transform="translate(-1345.000000, -31.000000)">
		<g id="Group-8" transform="translate(0.000000, -1.000000)">
			<g id="Shape-2" transform="translate(1345.000000, 32.000000)">
				<path id="Shape" class="st0" d="M7.5,0C11.6,0,15,3.4,15,7.5S11.6,15,7.5,15S0,11.6,0,7.5S3.4,0,7.5,0 M9.1,10H5.9
					c0.3,1.5,0.9,2.6,1.6,3.6C8.2,12.5,8.8,11.5,9.1,10 M4.6,10H1.8c0.8,1.8,2.3,3.1,4.2,3.6C5.3,12.5,4.9,11.3,4.6,10 M13.2,10
					h-2.9c-0.2,1.2-0.7,2.4-1.4,3.6C10.9,13.1,12.5,11.7,13.2,10 M4.5,6.2H1.4c-0.2,0.8-0.2,1.7,0,2.5h3.1C4.4,7.9,4.4,7.1,4.5,6.2
					 M9.3,6.2H5.7c-0.1,0.8-0.1,1.7,0,2.5h3.6C9.4,7.9,9.4,7.1,9.3,6.2 M13.6,6.2h-3.1c0.1,0.8,0.1,1.7,0,2.5h3.1
					C13.8,7.9,13.8,7.1,13.6,6.2 M6,1.4C4.1,1.9,2.5,3.2,1.8,5h2.9C5,3.7,5.4,2.5,6,1.4 M7.5,1.4C6.8,2.5,6.3,3.5,6,5H9
					C8.7,3.6,8.2,2.5,7.5,1.4 M9,1.4c0.6,1.1,1.1,2.3,1.3,3.6h2.9C12.5,3.2,10.9,1.9,9,1.4"/>
			</g>
		</g>
	</g>
</g>
</svg>
