<?xml version="1.0" encoding="utf-8"?>
<!-- Generator: Adobe Illustrator 26.1.0, SVG Export Plug-In . SVG Version: 6.00 Build 0)  -->
<svg version="1.1" id="Layer_1" xmlns="http://www.w3.org/2000/svg" xmlns:xlink="http://www.w3.org/1999/xlink" x="0px" y="0px"
	 viewBox="0 0 16 16" style="enable-background:new 0 0 16 16;" xml:space="preserve">
<style type="text/css">
	.st0{fill-rule:evenodd;clip-rule:evenodd;}
</style>
<g id="Symbols">
	<g id="Text-fields-_x2F_-Search" transform="translate(-9.000000, -14.000000)">
		<g id="Icons-_x2F_-Chevron-Down" transform="translate(5.000000, 10.000000)">
			<path id="Shape" class="st0" d="M10.4,4C6.9,4,4,6.9,4,10.4s2.9,6.4,6.4,6.4c1.5,0,2.9-0.5,4.1-1.4l4.4,4.4
				c0.3,0.3,0.7,0.3,0.9,0c0.3-0.3,0.3-0.7,0-0.9l-4.4-4.4c0.9-1.1,1.4-2.5,1.4-4.1C16.9,6.9,14,4,10.4,4L10.4,4z M10.4,5.3
				c2.8,0,5.1,2.3,5.1,5.1s-2.3,5.1-5.1,5.1s-5.1-2.3-5.1-5.1S7.6,5.3,10.4,5.3L10.4,5.3z"/>
		</g>
	</g>
</g>
</svg>
