<?xml version="1.0" encoding="UTF-8"?>
<svg width="146px" height="40px" viewBox="0 0 146 40" version="1.1" xmlns="http://www.w3.org/2000/svg" xmlns:xlink="http://www.w3.org/1999/xlink">
    <title>google play</title>
    <g id="Symbols" stroke="none" stroke-width="1" fill="none" fill-rule="evenodd">
        <g id="Navigation-/-Footer" transform="translate(-79.000000, -719.000000)">
            <g id="Group-47" transform="translate(79.000000, 624.000000)">
                <g id="Icons-/-Download---Google-Play" transform="translate(0.000000, 95.600000)">
                    <g id="Shape">
                        <rect id="Rectangle-5" fill="#D8D8D8" x="0" y="0" width="146" height="39.0351759"></rect>
                        <g id="↪🎨" fill="#1C75BC">
                            <rect id="Rectangle-5" x="0" y="0" width="146" height="39.0351759"></rect>
                        </g>
                    </g>
                    <g id="Group-2" transform="translate(47.041000, 6.372521)" fill="#FFFFFF">
                        <path d="M65.895,23.1339 L67.76,23.1339 L67.76,10.6329 L65.895,10.6329 L65.895,23.1339 Z M82.702,15.1359 L80.563,20.5559 L80.499,20.5559 L78.279,15.1359 L76.269,15.1359 L79.599,22.7109 L77.7,26.9249 L79.646,26.9249 L84.777,15.1359 L82.702,15.1359 Z M72.119,21.7139 C71.509,21.7139 70.656,21.4079 70.656,20.6519 C70.656,19.6879 71.718,19.3169 72.635,19.3169 C73.454,19.3169 73.841,19.4949 74.339,19.7349 C74.194,20.8939 73.197,21.7139 72.119,21.7139 L72.119,21.7139 Z M72.345,14.8619 C70.994,14.8619 69.595,15.4579 69.016,16.7759 L70.672,17.4679 C71.026,16.7759 71.685,16.5509 72.377,16.5509 C73.342,16.5509 74.323,17.1299 74.339,18.1589 L74.339,18.2879 C74.001,18.0949 73.277,17.8059 72.393,17.8059 C70.607,17.8059 68.79,18.7869 68.79,20.6199 C68.79,22.2929 70.254,23.3709 71.894,23.3709 C73.148,23.3709 73.841,22.8079 74.274,22.1479 L74.339,22.1479 L74.339,23.1129 L76.141,23.1129 L76.141,18.3199 C76.141,16.1009 74.483,14.8619 72.345,14.8619 L72.345,14.8619 Z M60.813,16.6579 L58.159,16.6579 L58.159,12.3729 L60.813,12.3729 C62.208,12.3729 63,13.5269 63,14.5149 C63,15.4839 62.208,16.6579 60.813,16.6579 L60.813,16.6579 Z M60.765,10.6319 L56.294,10.6319 L56.294,23.1339 L58.159,23.1339 L58.159,18.3979 L60.765,18.3979 C62.833,18.3979 64.866,16.8999 64.866,14.5149 C64.866,12.1299 62.833,10.6319 60.765,10.6319 L60.765,10.6319 Z M36.384,21.7159 C35.095,21.7159 34.016,20.6369 34.016,19.1549 C34.016,17.6559 35.095,16.5609 36.384,16.5609 C37.656,16.5609 38.655,17.6559 38.655,19.1549 C38.655,20.6369 37.656,21.7159 36.384,21.7159 L36.384,21.7159 Z M38.526,15.8359 L38.462,15.8359 C38.043,15.3369 37.237,14.8849 36.223,14.8849 C34.096,14.8849 32.146,16.7539 32.146,19.1549 C32.146,21.5389 34.096,23.3919 36.223,23.3919 C37.237,23.3919 38.043,22.9409 38.462,22.4249 L38.526,22.4249 L38.526,23.0369 C38.526,24.6649 37.656,25.5339 36.255,25.5339 C35.111,25.5339 34.402,24.7129 34.112,24.0199 L32.485,24.6969 C32.952,25.8239 34.192,27.2099 36.255,27.2099 C38.446,27.2099 40.299,25.9209 40.299,22.7789 L40.299,15.1429 L38.526,15.1429 L38.526,15.8359 Z M41.588,23.1339 L43.456,23.1339 L43.456,10.6329 L41.588,10.6329 L41.588,23.1339 Z M46.211,19.0099 C46.163,17.3659 47.484,16.5289 48.434,16.5289 C49.176,16.5289 49.804,16.8999 50.014,17.4309 L46.211,19.0099 Z M52.011,17.5919 C51.656,16.6419 50.577,14.8849 48.37,14.8849 C46.179,14.8849 44.358,16.6089 44.358,19.1389 C44.358,21.5229 46.163,23.3919 48.579,23.3919 C50.528,23.3919 51.656,22.1999 52.124,21.5069 L50.674,20.5399 C50.19,21.2489 49.53,21.7159 48.579,21.7159 C47.629,21.7159 46.952,21.2809 46.518,20.4269 L52.204,18.0749 L52.011,17.5919 Z M6.703,16.1909 L6.703,17.9949 L11.02,17.9949 C10.892,19.0099 10.553,19.7509 10.038,20.2659 C9.409,20.8949 8.426,21.5879 6.703,21.5879 C4.044,21.5879 1.966,19.4449 1.966,16.7869 C1.966,14.1289 4.044,11.9849 6.703,11.9849 C8.137,11.9849 9.184,12.5489 9.957,13.2749 L11.23,12.0019 C10.15,10.9709 8.717,10.1809 6.703,10.1809 C3.061,10.1809 0,13.1459 0,16.7869 C0,20.4269 3.061,23.3919 6.703,23.3919 C8.668,23.3919 10.15,22.7469 11.31,21.5389 C12.502,20.3469 12.873,18.6709 12.873,17.3179 C12.873,16.8999 12.841,16.5129 12.776,16.1909 L6.703,16.1909 Z M17.781,21.7159 C16.493,21.7159 15.381,20.6529 15.381,19.1389 C15.381,17.6079 16.493,16.5609 17.781,16.5609 C19.07,16.5609 20.182,17.6079 20.182,19.1389 C20.182,20.6529 19.07,21.7159 17.781,21.7159 L17.781,21.7159 Z M17.781,14.8849 C15.429,14.8849 13.512,16.6739 13.512,19.1389 C13.512,21.5879 15.429,23.3919 17.781,23.3919 C20.134,23.3919 22.051,21.5879 22.051,19.1389 C22.051,16.6739 20.134,14.8849 17.781,14.8849 L17.781,14.8849 Z M27.095,21.7159 C25.806,21.7159 24.694,20.6529 24.694,19.1389 C24.694,17.6079 25.806,16.5609 27.095,16.5609 C28.384,16.5609 29.495,17.6079 29.495,19.1389 C29.495,20.6529 28.384,21.7159 27.095,21.7159 L27.095,21.7159 Z M27.095,14.8849 C24.743,14.8849 22.826,16.6739 22.826,19.1389 C22.826,21.5879 24.743,23.3919 27.095,23.3919 C29.447,23.3919 31.364,21.5879 31.364,19.1389 C31.364,16.6739 29.447,14.8849 27.095,14.8849 L27.095,14.8849 Z" id="Google-Play"></path>
                        <path d="M3.4284,0 C3.8574,0 4.2694,0.084 4.6594,0.251 C5.0504,0.419 5.3634,0.642 5.5984,0.921 L5.0704,1.449 C4.6734,0.975 4.1264,0.737 3.4284,0.737 C2.7964,0.737 2.2504,0.959 1.7894,1.403 C1.3284,1.848 1.0984,2.424 1.0984,3.134 C1.0984,3.843 1.3284,4.42 1.7894,4.864 C2.2504,5.309 2.7964,5.53 3.4284,5.53 C4.0984,5.53 4.6564,5.307 5.1044,4.86 C5.3944,4.569 5.5624,4.165 5.6064,3.645 L3.4284,3.645 L3.4284,2.924 L6.3354,2.924 C6.3634,3.081 6.3774,3.231 6.3774,3.377 C6.3774,4.215 6.1294,4.882 5.6324,5.38 C5.0674,5.972 4.3324,6.268 3.4284,6.268 C2.5624,6.268 1.8254,5.968 1.2204,5.367 C0.6134,4.767 0.3114,4.022 0.3114,3.134 C0.3114,2.245 0.6134,1.501 1.2204,0.9 C1.8254,0.3 2.5624,0 3.4284,0 Z M30.3682,0 C31.2402,0 31.9712,0.304 32.5642,0.913 C33.1562,1.522 33.4522,2.262 33.4522,3.134 C33.4522,4.011 33.1572,4.752 32.5682,5.358 C31.9782,5.965 31.2452,6.268 30.3682,6.268 C29.4912,6.268 28.7582,5.965 28.1692,5.358 C27.5792,4.752 27.2852,4.011 27.2852,3.134 C27.2852,2.257 27.5792,1.515 28.1692,0.909 C28.7582,0.303 29.4912,0 30.3682,0 Z M10.9867,0.1341 L10.9867,0.8711 L8.2547,0.8711 L8.2547,2.7731 L10.7177,2.7731 L10.7177,3.4941 L8.2547,3.4941 L8.2547,5.3961 L10.9867,5.3961 L10.9867,6.1341 L7.4837,6.1341 L7.4837,0.1341 L10.9867,0.1341 Z M15.9137,0.1338 L15.9137,0.8708 L14.2377,0.8708 L14.2377,6.1338 L13.4667,6.1338 L13.4667,0.8708 L11.7907,0.8708 L11.7907,0.1338 L15.9137,0.1338 Z M19.668,0.1339 L19.668,6.1339 L18.897,6.1339 L18.897,0.1339 L19.668,0.1339 Z M24.7633,0.1338 L24.7633,0.8708 L23.0873,0.8708 L23.0873,6.1338 L22.3163,6.1338 L22.3163,0.8708 L20.6403,0.8708 L20.6403,0.1338 L24.7633,0.1338 Z M35.4721,0.1338 L38.3881,4.8008 L38.4221,4.8008 L38.3881,3.6448 L38.3881,0.1338 L39.1601,0.1338 L39.1601,6.1338 L38.3551,6.1338 L35.3051,1.2398 L35.2711,1.2398 L35.3051,2.3968 L35.3051,6.1338 L34.5341,6.1338 L34.5341,0.1338 L35.4721,0.1338 Z M30.3682,0.737 C29.7252,0.737 29.1822,0.962 28.7382,1.412 C28.2952,1.861 28.0722,2.436 28.0722,3.134 C28.0722,3.832 28.2952,4.406 28.7382,4.856 C29.1822,5.306 29.7252,5.53 30.3682,5.53 C31.0102,5.53 31.5542,5.306 31.9982,4.856 C32.4422,4.406 32.6652,3.832 32.6652,3.134 C32.6652,2.436 32.4422,1.861 31.9982,1.412 C31.5542,0.962 31.0102,0.737 30.3682,0.737 Z" id="Get-it-on"></path>
                    </g>
                    <g id="google-play-brands" transform="translate(19.000000, 9.758794)" fill="#FFFFFF" fill-rule="nonzero">
                        <path d="M14.3026289,10.7199942 L3.78066156,0.594792678 L17.1679222,7.97022188 L14.3026289,10.7199942 L14.3026289,10.7199942 Z M1.03455682,0 C0.414776237,0.311122324 0,0.878463032 0,1.61509089 L0,21.8060146 C0,22.5426425 0.414776237,23.1099832 1.03455682,23.4211055 L13.268072,11.7082651 L1.03455682,0 Z M21.3061495,10.3219406 L18.4980667,8.76175368 L15.3657909,11.7128404 L18.4980667,14.6639272 L21.36336,13.1037402 C22.2215177,12.4494683 22.2215177,10.9762126 21.3061495,10.3219406 L21.3061495,10.3219406 Z M3.78066156,22.8308882 L17.1679222,15.455459 L14.3026289,12.7056867 L3.78066156,22.8308882 Z" id="Shape"></path>
                    </g>
                </g>
            </g>
        </g>
    </g>
</svg>