<?xml version="1.0" encoding="UTF-8"?>
<svg width="146px" height="40px" viewBox="0 0 146 40" version="1.1" xmlns="http://www.w3.org/2000/svg" xmlns:xlink="http://www.w3.org/1999/xlink">
    <title>apple</title>
    <g id="Symbols" stroke="none" stroke-width="1" fill="none" fill-rule="evenodd">
        <g id="Navigation-/-Footer" transform="translate(-79.000000, -664.000000)">
            <g id="Group-47" transform="translate(79.000000, 624.000000)">
                <g id="Icons-/-Download---Apple-Store" transform="translate(0.000000, 40.600000)">
                    <g id="More-/-Applestore">
                        <g id="Shape" fill="#1C75BC">
                            <rect id="Rectangle-5" x="0" y="0" width="146" height="39.0351759"></rect>
                        </g>
                        <g transform="translate(18.000000, 5.500547)" fill="#FFFFFF" fill-rule="nonzero">
                            <path d="M47.283,15.71 C48.415,15.71 49.36,16.157 50.116,17.052 C50.874,17.948 51.252,19.126 51.252,20.587 C51.252,22.219 50.811,23.509 49.929,24.456 C49.139,25.299 48.158,25.72 46.987,25.72 C45.723,25.72 44.815,25.266 44.262,24.358 L44.222,24.358 L44.222,29.413 L42.09,29.413 L42.09,19.066 C42.09,18.04 42.063,16.987 42.011,15.907 L43.886,15.907 L44.005,17.428 L44.045,17.428 C44.756,16.282 45.835,15.71 47.283,15.71 Z M58.321,15.71 C59.452,15.71 60.397,16.157 61.155,17.052 C61.91,17.948 62.289,19.126 62.289,20.587 C62.289,22.219 61.848,23.509 60.965,24.456 C60.176,25.299 59.195,25.72 58.024,25.72 C56.76,25.72 55.852,25.266 55.3,24.358 L55.26,24.358 L55.26,29.413 L53.128,29.413 L53.128,19.066 C53.128,18.04 53.101,16.987 53.049,15.907 L54.924,15.907 L55.043,17.428 L55.083,17.428 C55.793,16.282 56.872,15.71 58.321,15.71 Z M87.659,15.711 C89.067,15.711 90.2,16.178 91.055,17.113 C91.873,18.02 92.281,19.191 92.281,20.626 C92.281,22.101 91.859,23.312 91.017,24.259 C90.134,25.234 88.962,25.72 87.501,25.72 C86.093,25.72 84.972,25.253 84.136,24.319 C83.3,23.385 82.882,22.206 82.882,20.785 C82.882,19.298 83.312,18.08 84.175,17.133 C85.036,16.185 86.198,15.711 87.659,15.711 Z M71.096,12 C72.307,12 73.313,12.211 74.116,12.632 L73.583,14.37 C72.833,13.962 71.985,13.758 71.036,13.758 C70.286,13.758 69.7,13.943 69.28,14.311 C68.925,14.64 68.747,15.041 68.747,15.516 C68.747,16.042 68.95,16.477 69.358,16.819 C69.713,17.135 70.358,17.477 71.294,17.846 C72.439,18.307 73.28,18.846 73.821,19.464 C74.36,20.08 74.629,20.851 74.629,21.771 C74.629,22.903 74.236,23.824 73.447,24.535 C72.58,25.312 71.373,25.7 69.822,25.7 C68.39,25.7 67.242,25.424 66.373,24.871 L66.867,23.094 C67.803,23.66 68.83,23.944 69.949,23.944 C70.752,23.944 71.377,23.762 71.826,23.4 C72.273,23.038 72.496,22.552 72.496,21.946 C72.496,21.406 72.312,20.951 71.943,20.582 C71.576,20.213 70.963,19.87 70.107,19.553 C67.777,18.684 66.613,17.411 66.613,15.737 C66.613,14.643 67.021,13.746 67.838,13.048 C68.652,12.349 69.738,12 71.096,12 Z M79.328,13.516 L79.328,15.905 L81.678,15.905 L81.678,17.507 L79.328,17.507 L79.328,22.166 C79.328,23.351 79.742,23.943 80.572,23.943 C80.953,23.943 81.269,23.91 81.519,23.844 L81.578,25.463 C81.158,25.62 80.605,25.699 79.92,25.699 C79.078,25.699 78.42,25.442 77.945,24.929 C77.472,24.415 77.234,23.553 77.234,22.342 L77.234,17.505 L75.834,17.505 L75.834,15.905 L77.234,15.905 L77.234,14.148 L79.328,13.516 Z M104.759,15.692 C106.142,15.692 107.189,16.205 107.9,17.231 C108.463,18.046 108.746,19.054 108.746,20.251 C108.746,20.633 108.721,20.955 108.668,21.218 L102.272,21.218 C102.297,22.166 102.606,22.891 103.2,23.391 C103.739,23.838 104.436,24.062 105.292,24.062 C106.239,24.062 107.103,23.911 107.88,23.608 L108.214,25.088 C107.306,25.484 106.234,25.681 104.997,25.681 C103.509,25.681 102.341,25.243 101.491,24.368 C100.643,23.493 100.218,22.318 100.218,20.844 C100.218,19.397 100.613,18.192 101.404,17.231 C102.232,16.205 103.351,15.692 104.759,15.692 Z M35.93,12.195 L40.235,25.503 L37.964,25.503 L36.72,21.594 L32.396,21.594 L31.211,25.503 L29,25.503 L33.284,12.195 L35.93,12.195 Z M98.678,15.71 C98.875,15.71 99.053,15.724 99.211,15.749 L99.211,17.782 C99,17.743 98.775,17.723 98.539,17.723 C97.789,17.723 97.209,18.006 96.801,18.573 C96.446,19.073 96.268,19.705 96.268,20.468 L96.268,25.503 L94.137,25.503 L94.157,18.929 C94.157,17.823 94.13,16.816 94.077,15.908 L95.934,15.908 L96.012,17.744 L96.071,17.744 C96.296,17.113 96.651,16.605 97.137,16.224 C97.612,15.881 98.125,15.71 98.678,15.71 Z M87.583,17.27 C86.726,17.27 86.075,17.653 85.628,18.418 C85.245,19.052 85.056,19.823 85.056,20.735 C85.056,21.62 85.245,22.379 85.628,23.011 C86.089,23.777 86.733,24.159 87.564,24.159 C88.378,24.159 89.017,23.769 89.478,22.991 C89.871,22.346 90.069,21.579 90.069,20.695 C90.069,19.81 89.88,19.051 89.497,18.418 C89.05,17.652 88.411,17.27 87.583,17.27 Z M46.592,17.407 C46.066,17.407 45.588,17.583 45.161,17.93 C44.733,18.28 44.453,18.737 44.322,19.303 C44.256,19.567 44.223,19.783 44.223,19.953 L44.223,21.553 C44.223,22.251 44.437,22.84 44.865,23.321 C45.293,23.802 45.849,24.042 46.533,24.042 C47.336,24.042 47.961,23.732 48.408,23.114 C48.856,22.495 49.08,21.679 49.08,20.665 C49.08,19.731 48.87,18.961 48.448,18.355 C47.987,17.723 47.368,17.407 46.592,17.407 Z M57.629,17.407 C57.102,17.407 56.625,17.583 56.197,17.93 C55.769,18.28 55.49,18.737 55.359,19.303 C55.294,19.567 55.26,19.783 55.26,19.953 L55.26,21.553 C55.26,22.251 55.474,22.84 55.9,23.321 C56.328,23.801 56.884,24.042 57.57,24.042 C58.373,24.042 58.998,23.732 59.445,23.114 C59.893,22.495 60.117,21.679 60.117,20.665 C60.117,19.731 59.906,18.961 59.484,18.355 C59.023,17.723 58.406,17.407 57.629,17.407 Z M34.549,13.972 L34.509,13.972 C34.378,14.538 34.167,15.374 33.877,16.479 L32.772,19.954 L36.345,19.954 L35.22,16.479 C35.101,16.124 34.878,15.288 34.549,13.972 Z M104.6,17.17 C103.903,17.17 103.336,17.459 102.903,18.039 C102.548,18.5 102.337,19.053 102.272,19.697 L106.713,19.697 C106.727,19.066 106.588,18.52 106.299,18.059 C105.93,17.466 105.363,17.17 104.6,17.17 Z" id="App-Store"></path>
                            <g id="Apple" transform="translate(0.000000, 0.000000)">
                                <path d="M18.128,13.784 C18.099,10.561 20.767,8.993 20.889,8.92 C19.378,6.717 17.036,6.416 16.213,6.392 C14.246,6.185 12.338,7.569 11.336,7.569 C10.314,7.569 8.771,6.412 7.108,6.446 C4.968,6.479 2.966,7.718 1.868,9.642 C-0.398,13.565 1.292,19.33 3.463,22.501 C4.549,24.054 5.818,25.788 7.479,25.727 C9.104,25.66 9.711,24.691 11.672,24.691 C13.615,24.691 14.185,25.727 15.879,25.688 C17.623,25.66 18.721,24.128 19.769,22.561 C21.024,20.781 21.528,19.028 21.548,18.938 C21.507,18.924 18.161,17.647 18.128,13.784 Z" id="Shape"></path>
                                <path d="M14.928,4.306 C15.802,3.213 16.4,1.726 16.234,0.217 C14.969,0.273 13.387,1.092 12.476,2.161 C11.67,3.103 10.95,4.647 11.136,6.099 C12.557,6.205 14.016,5.382 14.928,4.306 Z" id="Shape"></path>
                            </g>
                        </g>
                    </g>
                    <path d="M50.117,6.75556181 C50.546,6.75556181 50.958,6.83956181 51.348,7.00656181 C51.739,7.17456181 52.052,7.39756181 52.287,7.67656181 L51.759,8.20456181 C51.362,7.73056181 50.815,7.49256181 50.117,7.49256181 C49.485,7.49256181 48.939,7.71456181 48.478,8.15856181 C48.017,8.60356181 47.787,9.17956181 47.787,9.88956181 C47.787,10.5985618 48.017,11.1755618 48.478,11.6195618 C48.939,12.0645618 49.485,12.2855618 50.117,12.2855618 C50.787,12.2855618 51.345,12.0625618 51.793,11.6155618 C52.083,11.3245618 52.251,10.9205618 52.295,10.4005618 L50.117,10.4005618 L50.117,9.67956181 L53.024,9.67956181 C53.052,9.83656181 53.066,9.98656181 53.066,10.1325618 C53.066,10.9705618 52.818,11.6375618 52.321,12.1355618 C51.756,12.7275618 51.021,13.0235618 50.117,13.0235618 C49.251,13.0235618 48.514,12.7235618 47.909,12.1225618 C47.302,11.5225618 47,10.7775618 47,9.88956181 C47,9.00056181 47.302,8.25656181 47.909,7.65556181 C48.514,7.05556181 49.251,6.75556181 50.117,6.75556181 Z M77.0568,6.75556181 C77.9288,6.75556181 78.6598,7.05956181 79.2528,7.66856181 C79.8448,8.27756181 80.1408,9.01756181 80.1408,9.88956181 C80.1408,10.7665618 79.8458,11.5075618 79.2568,12.1135618 C78.6668,12.7205618 77.9338,13.0235618 77.0568,13.0235618 C76.1798,13.0235618 75.4468,12.7205618 74.8578,12.1135618 C74.2678,11.5075618 73.9738,10.7665618 73.9738,9.88956181 C73.9738,9.01256181 74.2678,8.27056181 74.8578,7.66456181 C75.4468,7.05856181 76.1798,6.75556181 77.0568,6.75556181 Z M57.6753,6.88966181 L57.6753,7.62666181 L54.9433,7.62666181 L54.9433,9.52866181 L57.4063,9.52866181 L57.4063,10.2496618 L54.9433,10.2496618 L54.9433,12.1516618 L57.6753,12.1516618 L57.6753,12.8896618 L54.1723,12.8896618 L54.1723,6.88966181 L57.6753,6.88966181 Z M62.6023,6.88936181 L62.6023,7.62636181 L60.9263,7.62636181 L60.9263,12.8893618 L60.1553,12.8893618 L60.1553,7.62636181 L58.4793,7.62636181 L58.4793,6.88936181 L62.6023,6.88936181 Z M66.3566,6.88946181 L66.3566,12.8894618 L65.5856,12.8894618 L65.5856,6.88946181 L66.3566,6.88946181 Z M71.4519,6.88936181 L71.4519,7.62636181 L69.7759,7.62636181 L69.7759,12.8893618 L69.0049,12.8893618 L69.0049,7.62636181 L67.3289,7.62636181 L67.3289,6.88936181 L71.4519,6.88936181 Z M82.1607,6.88936181 L85.0767,11.5563618 L85.1107,11.5563618 L85.0767,10.4003618 L85.0767,6.88936181 L85.8487,6.88936181 L85.8487,12.8893618 L85.0437,12.8893618 L81.9937,7.99536181 L81.9597,7.99536181 L81.9937,9.15236181 L81.9937,12.8893618 L81.2227,12.8893618 L81.2227,6.88936181 L82.1607,6.88936181 Z M77.0568,7.49256181 C76.4138,7.49256181 75.8708,7.71756181 75.4268,8.16756181 C74.9838,8.61656181 74.7608,9.19156181 74.7608,9.88956181 C74.7608,10.5875618 74.9838,11.1615618 75.4268,11.6115618 C75.8708,12.0615618 76.4138,12.2855618 77.0568,12.2855618 C77.6988,12.2855618 78.2428,12.0615618 78.6868,11.6115618 C79.1308,11.1615618 79.3538,10.5875618 79.3538,9.88956181 C79.3538,9.19156181 79.1308,8.61656181 78.6868,8.16756181 C78.2428,7.71756181 77.6988,7.49256181 77.0568,7.49256181 Z" id="Get-it-on" fill="#FFFFFF"></path>
                </g>
            </g>
        </g>
    </g>
</svg>