<?xml version="1.0" encoding="utf-8"?>
<!-- Generator: Adobe Illustrator 26.1.0, SVG Export Plug-In . SVG Version: 6.00 Build 0)  -->
<svg version="1.1" id="Layer_1" xmlns="http://www.w3.org/2000/svg" xmlns:xlink="http://www.w3.org/1999/xlink" x="0px" y="0px"
	 viewBox="0 0 14 14" style="enable-background:new 0 0 14 14;" xml:space="preserve">
<style type="text/css">
	.st0{fill-rule:evenodd;clip-rule:evenodd;}
</style>
<g id="Pages">
	<g id="_x35_.3-Claims-_x26_-Support---FAQ" transform="translate(-306.000000, -780.000000)">
		<g id="table" transform="translate(25.000000, 328.000000)">
			<g id="Group" transform="translate(28.000000, 447.218623)">
				<g id="Icons-_x2F_-Chevron-Up-Copy" transform="translate(248.000000, 0.000000)">
					<g id="Mask">
						<path id="path-1_00000057850787609473747450000002458322993346947773_" class="st0" d="M13,12.8v5c0,0.5-0.4,1-1,1l0,0
							c-0.6,0-1-0.5-1-1v-5H6c-0.5,0-1-0.4-1-1l0,0c0-0.6,0.5-1,1-1h5v-5c0-0.5,0.4-1,1-1l0,0c0.6,0,1,0.5,1,1v5h5c0.5,0,1,0.4,1,1
							l0,0c0,0.6-0.5,1-1,1H13z"/>
					</g>
				</g>
			</g>
		</g>
	</g>
</g>
</svg>
