<svg xmlns="http://www.w3.org/2000/svg" viewBox="0 0 64 44.7" style="enable-background:new 0 0 64 44.7" xml:space="preserve"><g style="enable-background:new"><path d="M17.6 44.7c-5.5 0-9.9-2.1-13-6.1C1.5 34.4 0 29 0 22.3c0-6.7 1.5-12.1 4.6-16.1C7.7 2.1 12.1 0 17.6 0s9.9 2.1 12.9 6.2c3.1 4 4.7 9.4 4.7 16.1 0 6.8-1.5 12.1-4.7 16.2-3 4.1-7.4 6.2-12.9 6.2zm0-43.7C12.4 1 8.4 2.9 5.4 6.8 2.5 10.7 1 15.9 1 22.3 1 28.8 2.5 34 5.4 37.9c2.9 3.8 7 5.7 12.2 5.7 5.2 0 9.3-1.9 12.1-5.7 3-3.9 4.5-9 4.5-15.6 0-6.5-1.5-11.7-4.5-15.5C26.9 3 22.8 1 17.6 1zm0 34.3c-5.3 0-8-4.4-8-13s2.7-13 8-13 8 4.4 8 13-2.7 13-8 13zm0-24.9c-4.7 0-7 3.9-7 12s2.3 12 7 12 7-3.9 7-12-2.3-12-7-12zM50.2 43.8H38.9L52.1 11H35.4V.8H64v8.7L50.2 43.8zm-9.8-1h9.1L63 9.3V1.8H36.4V10h17.2L40.4 42.8z"/></g></svg>