<svg xmlns="http://www.w3.org/2000/svg" viewBox="0 0 67.9 44.8" style="enable-background:new 0 0 67.9 44.8" xml:space="preserve"><path d="M17.6 44.7c-5.5 0-9.9-2.1-13-6.1C1.5 34.4 0 29 0 22.3c0-6.7 1.5-12.1 4.6-16.1C7.7 2.1 12.1 0 17.6 0s9.9 2.1 12.9 6.2c3.1 4 4.7 9.4 4.7 16.1 0 6.8-1.5 12.1-4.7 16.2-3 4.1-7.4 6.2-12.9 6.2zm0-43.7C12.4 1 8.4 2.9 5.4 6.8 2.5 10.7 1 15.9 1 22.3 1 28.8 2.5 34 5.4 37.9c2.9 3.8 7 5.7 12.2 5.7 5.2 0 9.3-1.9 12.1-5.7 3-3.9 4.5-9 4.5-15.6 0-6.5-1.5-11.7-4.5-15.5C26.9 3 22.8 1 17.6 1zm0 34.3c-5.3 0-8-4.4-8-13s2.7-13 8-13 8 4.4 8 13-2.7 13-8 13zm0-24.9c-4.7 0-7 3.9-7 12s2.3 12 7 12 7-3.9 7-12-2.3-12-7-12zM52.1 44.7c-7.5 0-13-3.3-15.5-9.3l-.1-.4 9.2-5.3.2.6c.9 2.7 3 4.1 6.2 4.1 2.1.1 3.7-.6 4.6-2 .8-1.3.8-3.1 0-4.4-.8-1.4-2.3-2.1-4.2-1.9H38.8L40.6 1h25.3v10H50.5l-.3 4.8H53c4.2 0 7.8 1.3 10.6 3.9 2.9 2.5 4.3 6.1 4.3 10.7 0 4.5-1.6 8.1-4.6 10.7-3.1 2.3-6.8 3.6-11.2 3.6zm-14.4-9.3c2.4 5.4 7.5 8.3 14.4 8.3 4.1 0 7.7-1.2 10.5-3.6 2.8-2.4 4.3-5.7 4.3-9.9 0-4.3-1.3-7.6-4-9.9-2.6-2.4-6-3.6-9.9-3.6h-4l.5-6.8h15.3v-8H41.5L39.8 25h12.6c2.2-.2 4.1.7 5.1 2.4s1 3.8 0 5.5c-1.1 1.7-3.1 2.6-5.5 2.5-3.4 0-5.8-1.5-6.9-4.2l-7.4 4.2z"/></svg>