<svg version="1.1" id="Layer_1" xmlns="http://www.w3.org/2000/svg" x="0" y="0" viewBox="0 0 150 54.6" style="enable-background:new 0 0 150 54.6" xml:space="preserve"><style>.st0{fill:#1a2b68}</style><g id="Symbols"><g id="header" transform="translate(-60 -45)"><g id="logo_02" transform="translate(60 45)"><path id="Path" class="st0" d="M53.6 52.4c-1.6.8-3.3 1.4-5 1.7-1.7.4-3.5.5-5.3.5-1.8 0-3.6-.3-5.3-.8-1.6-.6-3-1.4-4.2-2.5-1.2-1.1-2.1-2.4-2.7-3.9-1.3-3.3-1.3-6.9 0-10.2.6-1.5 1.6-2.8 2.7-3.9 1.2-1.1 2.6-1.9 4.2-2.4 1.7-.6 3.5-.9 5.3-.9 1.8 0 3.7.2 5.4.7 1.6.4 3.1 1.2 4.4 2.4l-3.8 4c-.7-.7-1.6-1.3-2.5-1.7-1.1-.4-2.3-.6-3.5-.6-1.1 0-2.1.2-3.1.6-.9.4-1.7.9-2.5 1.6-.7.7-1.2 1.5-1.5 2.4-.7 1.9-.7 4.1 0 6 .3.9.9 1.7 1.5 2.4.7.7 1.5 1.2 2.5 1.6 1 .4 2 .6 3.1.6 1 0 2.1-.1 3.1-.4.7-.2 1.4-.5 2-.8V45H44v-4.8h9.7v12.2z"/><path id="Shape" class="st0" d="M62.4 39.8h4.9c.5 0 1-.1 1.5-.3.5-.2.9-.4 1.2-.8.6-.9.6-2 0-2.9-.3-.4-.6-.7-1-.8-.4-.2-.9-.3-1.4-.4-.5-.1-1-.1-1.5-.1h-3.6v5.3zM56.8 30h9.8c1.2 0 2.5.1 3.7.4 1.1.2 2.1.6 3 1.2.9.6 1.6 1.3 2.1 2.2.5 1.1.8 2.3.8 3.5 0 1.5-.5 3-1.4 4.2-1 1.2-2.5 2-4.1 2.2l6.4 9.9h-6.7l-5.3-9.4h-2.7v9.4h-5.6V30z"/><path id="Path_00000142169071190151213550000005585054540825863606_" class="st0" d="M126.4 44.8c0 1.3-.2 2.6-.7 3.9-.4 1.2-1.1 2.2-2.1 3.1-.9.9-2.1 1.7-3.4 2.1-3 1-6.3 1-9.3 0-1.3-.4-2.4-1.2-3.4-2.1-.9-.9-1.6-2-2-3.1-.4-1.3-.7-2.6-.7-3.9V30h5.6v14.6c0 .7.1 1.4.4 2 .2.6.6 1.2 1 1.6.5.5 1 .8 1.6 1.1.7.2 1.4.4 2.1.4.7 0 1.4-.1 2.1-.4.6-.3 1.2-.7 1.6-1.1.4-.5.8-1 1-1.6.3-.7.4-1.3.4-2V30h5.6v14.8z"/><path id="Shape_00000070106418527727934700000006034366163075322772_" class="st0" d="M137.1 40h3.6c.5 0 .9 0 1.4-.1.4-.1.8-.2 1.2-.4.4-.2.7-.5.9-.9.2-.4.3-.9.3-1.4 0-.5-.1-1-.5-1.4-.3-.4-.6-.6-1.1-.8-.5-.2-1-.3-1.5-.4-.5 0-1.1-.1-1.6-.1h-2.7V40zm-5.3-10h9c1.2 0 2.4.1 3.6.4 1 .2 2 .6 2.9 1.1.8.6 1.5 1.3 2 2.2.5 1.1.8 2.3.7 3.5.1 1.2-.2 2.4-.6 3.5-.4.9-1.1 1.6-1.9 2.2-.9.6-1.8 1-2.9 1.2-1.2.2-2.4.4-3.6.4h-3.9v9.2h-5.4V30z"/><path id="Path_00000036946772454602492360000007279305212891962795_" class="st0" d="M14.3 6.3c-.5-.6-1.1-1-1.8-1.2-.7-.2-1.4-.4-2.2-.4-.4 0-.8 0-1.2.1-.4.2-.9.4-1.3.6-.3.1-.6.4-.8.7-.3.3-.4.7-.4 1.1 0 .6.3 1.3.9 1.6.7.4 1.4.7 2.2 1 .9.2 1.8.5 2.8.8 1 .2 1.9.6 2.8 1.1.9.5 1.6 1.1 2.2 1.9.6 1 .9 2.1.9 3.3 0 1.2-.2 2.4-.8 3.4-.5 1-1.2 1.8-2.1 2.4-.9.6-2 1.1-3.1 1.4-1.2.3-2.5.5-3.8.5-1.6 0-3.1-.2-4.6-.7-1.5-.5-2.8-1.2-3.9-2.2l3.9-4c.6.7 1.3 1.3 2.2 1.6.8.4 1.8.6 2.7.6.5 0 .9 0 1.4-.2.4-.1.9-.2 1.2-.4.4-.2.7-.4.9-.8.2-.3.4-.7.3-1.1 0-.6-.3-1.3-.8-1.7-.7-.5-1.4-.8-2.2-1-.9-.3-1.8-.6-2.8-.9-1-.3-2-.7-2.8-1.2-.9-.5-1.6-1.1-2.2-1.9-.6-1-.9-2.1-.9-3.2 0-1.2.2-2.3.8-3.3.5-.9 1.2-1.7 2.1-2.4.9-.7 2-1.1 3.1-1.4C8 .2 9.2 0 10.4 0c1.4 0 2.8.2 4.1.6 1.3.4 2.6 1 3.6 1.9l-3.8 3.8z"/><path id="Path_00000105408012343840872540000007754680992020801427_" class="st0" d="M21.4 1.1h15.5v4.8H26.4v4.4h9.9v4.8h-9.9v4.7h11.1v4.8H21.4z"/><path id="Shape_00000017495650767171053810000011571517779590368648_" class="st0" d="m52.3 7.9-3 7.4h6l-3-7.4zm-2.1-6.8h4.5l10.6 23.6h-6.1l-2.1-5h-9.5l-2 5h-6L50.2 1.1z"/><path id="Path_00000132767043388384937550000017696554049279377328_" class="st0" d="M80.8 6.3c-.5-.5-1.1-.9-1.8-1.2-.7-.2-1.5-.4-2.2-.4-.4 0-.8 0-1.2.1-.4.1-.8.2-1.2.4-.4.2-.7.4-.9.7-.4.5-.5.9-.5 1.3 0 .7.3 1.3.9 1.6.7.4 1.4.7 2.1 1 .9.2 1.8.5 2.8.8 1 .2 1.9.6 2.8 1.1.9.5 1.6 1.1 2.2 1.9.6 1 .9 2.1.9 3.3 0 1.2-.2 2.3-.8 3.4-.5 1-1.2 1.8-2.1 2.4-.9.7-2 1.1-3.1 1.4-2.7.7-5.6.6-8.3-.3-1.5-.5-2.8-1.2-3.9-2.2l4-4c.5.7 1.3 1.3 2.1 1.6.8.4 1.8.6 2.7.6.5 0 .9 0 1.4-.2.4-.1.9-.2 1.2-.4.4-.2.7-.5.9-.8.2-.3.3-.7.3-1.1 0-.7-.4-1.3-1-1.7-.7-.4-1.4-.8-2.2-1-.9-.3-1.8-.6-2.9-.9-1-.3-2-.7-2.9-1.2-.9-.5-1.6-1.1-2.2-1.9-.6-.9-1-2-.9-3.2 0-1.2.2-2.3.8-3.3.5-.9 1.2-1.7 2.1-2.4.9-.7 2-1.2 3.1-1.5 1.4 0 2.6-.2 3.9-.2 1.4 0 2.8.2 4.1.6 1.3.4 2.6 1 3.6 1.9l-3.8 3.8z"/><path id="Path_00000042694137309743421200000003690056809784852915_" class="st0" d="M115.7 1.1h6.8l9.2 15.7V1.1h5.4v23.5h-6.5l-9.5-16.8v16.8h-5.4z"/><path id="Path_00000116952017606584146020000006851622325895882136_" d="m97.9 21.7.6.9c.7 1.1 1.4 2.1 2.1 3.1 6.9-.5 12.1-6.4 11.8-13.3C112.2 5.5 106.6 0 99.7 0c-7.1 0-13.2 6.3-13.2 13.4 0 5.1 2.9 9.3 5.7 13.5 2.6 3.9 5.4 7.9 5.9 12.8.1.5.1 1.1.1 1.6 0 4.6-3.6 8.4-8.2 8.4-4.3-.1-7.7-3.6-7.8-7.9.1-3 1.8-5.7 4.5-7.1l.1-.1H87.1c1.8-.9 3.7-1.4 5.7-1.6h.1v-.1c-.8-1.4-1.7-2.8-2.4-3.8h-.4c-6.8 0-12.8 6-12.8 12.9.1 7.1 5.8 12.8 12.8 12.9 7.3 0 13.2-6 13.2-13.4 0-.7 0-1.4-.1-2.1-.6-6.1-3.9-10.9-6.7-15.1-2.6-3.8-4.8-7.1-4.8-10.7-.2-4.6 3.7-8.6 8-8.6 4.3.1 7.7 3.6 7.8 7.9 0 3.1-1.8 6-4.7 7.3l-.1.1c-1.5.7-3 1.2-4.6 1.5h-.2z" style="fill:#0090d4"/></g></g></g></svg>