<svg xmlns="http://www.w3.org/2000/svg" viewBox="0 0 65.7 44.7" style="enable-background:new 0 0 65.7 44.7" xml:space="preserve"><path d="M17.6 44.7c-5.5 0-9.9-2.1-13-6.1C1.5 34.4 0 29 0 22.3c0-6.7 1.5-12.1 4.6-16.1C7.7 2.1 12.1 0 17.6 0s9.9 2.1 12.9 6.2c3.1 4 4.7 9.4 4.7 16.1 0 6.8-1.5 12.1-4.7 16.2-3 4.1-7.4 6.2-12.9 6.2zm0-43.7C12.4 1 8.4 2.9 5.4 6.8 2.5 10.7 1 15.9 1 22.3 1 28.8 2.5 34 5.4 37.9c2.9 3.8 7 5.7 12.2 5.7 5.2 0 9.3-1.9 12.1-5.7 3-3.9 4.5-9 4.5-15.6 0-6.5-1.5-11.7-4.5-15.5C26.9 3 22.8 1 17.6 1zm0 34.3c-5.3 0-8-4.4-8-13s2.7-13 8-13 8 4.4 8 13c0 8.7-2.7 13-8 13zm0-24.9c-4.7 0-7 3.9-7 12s2.3 12 7 12 7-3.9 7-12-2.3-12-7-12zM65.7 43.8H36.1v-7.7l14.2-14.8c2.7-2.8 4.1-5.2 4.1-7.1 0-2.4-1.5-3.9-4-3.9-2.6 0-4.5 1.4-5.7 4.3l-.2.5-9-5.2.2-.4c2.6-5.9 8-9.5 14.6-9.5 4 0 7.5 1.3 10.4 3.8 2.9 2.5 4.4 5.9 4.4 10.1 0 4.6-2.2 9.1-6.7 13.6l-6.1 6.2h13.4v10.1zm-28.6-1h27.6v-8.2H49.9l7.8-7.9c4.3-4.3 6.4-8.5 6.4-12.8 0-4-1.3-7-4-9.3C57.4 2.2 54.2 1 50.4 1c-6 0-11.1 3.2-13.5 8.5l7.2 4.2c1.4-2.9 3.6-4.3 6.4-4.3 3 0 5 1.9 5 4.9 0 2.2-1.4 4.7-4.4 7.8l-14 14.5v6.2z"/></svg>