<svg xmlns="http://www.w3.org/2000/svg" viewBox="0 0 69.6 44.7" style="enable-background:new 0 0 69.6 44.7" xml:space="preserve"><g style="enable-background:new"><path d="M17.6 44.7c-5.5 0-9.9-2.1-13-6.1C1.5 34.4 0 29 0 22.3c0-6.7 1.5-12.1 4.6-16.1C7.7 2.1 12.1 0 17.6 0s9.9 2.1 12.9 6.2c3.1 4 4.7 9.4 4.7 16.1 0 6.8-1.5 12.1-4.7 16.2-3 4.1-7.4 6.2-12.9 6.2zm0-43.7C12.4 1 8.4 2.9 5.4 6.8 2.5 10.7 1 15.9 1 22.3 1 28.8 2.5 34 5.4 37.9c2.9 3.8 7 5.7 12.2 5.7 5.2 0 9.3-1.9 12.1-5.7 3-3.9 4.5-9 4.5-15.6 0-6.5-1.5-11.7-4.5-15.5C26.9 3 22.8 1 17.6 1zm0 34.3c-5.3 0-8-4.4-8-13s2.7-13 8-13 8 4.4 8 13-2.7 13-8 13zm0-24.9c-4.7 0-7 3.9-7 12s2.3 12 7 12 7-3.9 7-12-2.3-12-7-12zM53.7 44.7c-9.8 0-15.9-5-15.9-13.2 0-4.3 1.7-7.7 5.1-10.1-2.4-2.1-3.7-5-3.7-8.4 0-4 1.4-7.3 4.1-9.6C46.1 1.1 49.6 0 53.7 0S61.3 1.1 64 3.4c2.7 2.3 4.1 5.5 4.1 9.6 0 3.5-1.2 6.3-3.7 8.4 3.4 2.4 5.1 5.8 5.1 10.1.1 8.1-6 13.2-15.8 13.2zm0-43.7c-3.9 0-7.2 1.1-9.7 3.2-2.5 2.1-3.8 5.1-3.8 8.8 0 3.4 1.3 6.1 3.8 8.1l.6.4-.6.4c-3.5 2.2-5.2 5.4-5.2 9.7 0 7.6 5.6 12.2 14.9 12.2s14.9-4.5 14.9-12.2c0-4.2-1.7-7.4-5.2-9.7l-.6-.4.6-.4c2.6-2 3.8-4.6 3.8-8.1 0-3.7-1.3-6.7-3.8-8.8C60.9 2.1 57.6 1 53.7 1zm0 34.7c-1.9 0-3.4-.5-4.5-1.4-1.2-1-1.8-2.4-1.8-4.1 0-1.7.6-3 1.8-4 1.2-1 2.7-1.5 4.5-1.5 1.8 0 3.3.5 4.5 1.5 1.2 1 1.8 2.4 1.8 4 0 1.7-.6 3.1-1.8 4.1-1.1.9-2.6 1.4-4.5 1.4zm0-10.1c-1.6 0-2.9.4-3.9 1.3-1 .8-1.4 1.9-1.4 3.3s.5 2.5 1.4 3.3c1 .8 2.2 1.2 3.9 1.2s2.9-.4 3.9-1.2c1-.8 1.4-1.9 1.4-3.3s-.5-2.5-1.4-3.3c-1-.9-2.3-1.3-3.9-1.3zm0-7.5c-1.3 0-2.6-.4-3.5-1.3-.9-.8-1.4-2-1.4-3.3s.5-2.5 1.4-3.3c1.8-1.7 5.2-1.7 7 0 .9.8 1.4 2 1.4 3.3s-.5 2.5-1.4 3.3c-.9.9-2.2 1.3-3.5 1.3zm0-8.1c-1.1 0-2.1.3-2.8 1-.7.6-1.1 1.6-1.1 2.6s.4 2 1.1 2.6c1.4 1.3 4.2 1.3 5.7 0 .7-.6 1.1-1.6 1.1-2.6s-.4-2-1.1-2.6c-.8-.7-1.8-1-2.9-1z"/></g></svg>