<svg width="33" height="30" xmlns="http://www.w3.org/2000/svg"><path d="M13.07 30V17.447H6.417c-.04-.46-.07-.758-.091-.892a3.336 3.336 0 0 1-.03-.49c0-1.612.284-3.243.854-4.894 1.14-3.34 3.112-5.26 5.92-5.758V0c-3.865.46-6.998 2.227-9.4 5.298-2.4 3.07-3.6 7.447-3.6 13.128V30h13Zm19 0V17.447h-6.621a3.747 3.747 0 0 1-.152-.748c-.02-.23-.03-.461-.03-.691 0-2.65.576-4.99 1.73-7.025 1.155-2.035 2.846-3.225 5.073-3.57V0c-4.617.537-7.938 2.6-9.963 6.19-2.025 3.59-3.037 7.668-3.037 12.236V30h13Z" fill="#3BC6F4" fill-rule="nonzero"/></svg>