<svg xmlns="http://www.w3.org/2000/svg" viewBox="0 0 69.4 44.7" style="enable-background:new 0 0 69.4 44.7" xml:space="preserve"><path d="M17.6 44.7c-5.5 0-9.9-2.1-13-6.1C1.5 34.4 0 29 0 22.3c0-6.7 1.5-12.1 4.6-16.1C7.7 2.1 12.1 0 17.6 0s9.9 2.1 12.9 6.2c3.1 4 4.7 9.4 4.7 16.1 0 6.8-1.5 12.1-4.7 16.2-3 4.1-7.4 6.2-12.9 6.2zm0-43.7C12.4 1 8.4 2.9 5.4 6.8 2.5 10.7 1 15.9 1 22.3 1 28.8 2.5 34 5.4 37.9c2.9 3.8 7 5.7 12.2 5.7 5.2 0 9.3-1.9 12.1-5.7 3-3.9 4.5-9 4.5-15.6 0-6.5-1.5-11.7-4.5-15.5C26.9 3 22.8 1 17.6 1zm0 34.3c-5.3 0-8-4.4-8-13s2.7-13 8-13 8 4.4 8 13-2.7 13-8 13zm0-24.9c-4.7 0-7 3.9-7 12s2.3 12 7 12 7-3.9 7-12-2.3-12-7-12zM53.3 44.7c-4.8 0-8.7-1.4-11.6-4.3-3-2.8-4.5-6.6-4.5-11 0-3.3.9-6.2 2.5-8.8L52.7.9H65l-9.2 13.3c3.8.4 7 2 9.5 4.6 2.7 2.8 4 6.4 4 10.5 0 4.5-1.5 8.2-4.5 11-2.9 2.9-6.8 4.4-11.5 4.4zm0-42.9L40.6 21.1c-1.6 2.4-2.4 5.1-2.4 8.2 0 4.3 1.4 7.6 4.2 10.3 2.8 2.7 6.4 4 10.9 4s8.1-1.3 10.9-4c2.8-2.7 4.2-6 4.2-10.3 0-3.9-1.3-7.2-3.8-9.9-2.5-2.6-5.8-4.1-9.8-4.4H54l9.1-13.2h-9.8zm0 33.9c-1.7 0-3.3-.6-4.6-1.7-1.2-1.1-1.9-2.7-1.9-4.6s.7-3.5 1.9-4.6c2.6-2.3 6.7-2.3 9.2.1 1.2 1.1 1.9 2.7 1.9 4.6s-.6 3.4-1.9 4.6c-1.3 1-2.9 1.6-4.6 1.6zm0-11.7c-1.4 0-2.8.5-3.9 1.4-1 .9-1.6 2.2-1.6 3.9s.5 3 1.6 3.9c2.2 1.9 5.7 1.9 7.8 0 1-1 1.6-2.3 1.6-3.9s-.5-2.9-1.6-3.8c-1.1-1-2.5-1.5-3.9-1.5z"/></svg>