<svg xmlns="http://www.w3.org/2000/svg" viewBox="0 0 16 16" style="enable-background:new 0 0 16 16" xml:space="preserve"><path d="M4.4 0C2 0 0 2 0 4.4v7.1C0 14 2 16 4.4 16h7.1c2.5 0 4.4-2 4.4-4.4V4.4C16 2 14 0 11.6 0H4.4zm8.9 1.8c.5 0 .9.4.9.9s-.4.9-.9.9-.9-.4-.9-.9.4-.9.9-.9zM8 3.6c2.5 0 4.4 2 4.4 4.4s-2 4.4-4.4 4.4-4.4-2-4.4-4.4S5.5 3.6 8 3.6zm0 1.7c-1 0-1.8.5-2.3 1.3-.5.8-.5 1.8 0 2.7.5.9 1.3 1.4 2.3 1.4 1.5 0 2.7-1.2 2.7-2.7S9.5 5.3 8 5.3z" style="fill:currentColor;fill-rule:evenodd"/></svg>