<svg xmlns="http://www.w3.org/2000/svg" viewBox="0 0 17 16" style="enable-background:new 0 0 17 16" xml:space="preserve"><path d="M4 5.9c0-.5.2-1 .6-1.3.4-.4.9-.6 1.5-.6s1.1.2 1.5.5c.4.4.6.8.6 1.4 0 .5-.2.9-.6 1.3-.4.4-.9.5-1.6.5-.6 0-1.1-.2-1.5-.5-.3-.4-.5-.8-.5-1.3zM4.2 20V9.2h3.6V20H4.2zm5.7 0h3.6v-6c0-.4 0-.7.1-.9.2-.4.4-.7.7-.9.3-.3.7-.4 1.2-.4 1.2 0 1.8.8 1.8 2.4V20H21v-6.2c0-1.6-.4-2.8-1.1-3.6-.8-.8-1.8-1.2-3-1.2-1.4 0-2.5.6-3.3 1.8V9.2H9.9V20z" style="fill:currentColor;fill-rule:evenodd" transform="translate(-4 -4)"/></svg>